<?xml version="1.0" encoding="utf-8"?>
<!-- Generator: Adobe Illustrator 22.0.0, SVG Export Plug-In . SVG Version: 6.00 Build 0)  -->
<svg version="1.1" xmlns="http://www.w3.org/2000/svg" xmlns:xlink="http://www.w3.org/1999/xlink" x="0px" y="0px"
	 viewBox="0 0 662.6 730.7" style="enable-background:new 0 0 662.6 730.7;" xml:space="preserve">
<style type="text/css">
	.st0{fill:#F08331;}
	.st1{fill:#EEA333;}
	.st2{fill:#EED48D;}
	.st3{fill:#EEDDAC;}
	.st4{fill:#141414;}
	.st5{fill:#333334;}
	.st6{fill:#BB9D84;}
</style>
<g id="Calque_1">
	<rect x="-593.3" y="375.5" class="st0" width="252" height="230.4"/>
	<rect x="-488.3" y="483.5" class="st1" width="252" height="230.4"/>
	<rect x="-488.3" y="623" class="st2" width="252" height="230.4"/>
	<rect x="-488.3" y="738.2" class="st3" width="252" height="230.4"/>
	<path class="st4" d="M597.3,507.4H67.2c-16.4,0-29.8-13.3-29.8-29.8V59.7c0-16.4,13.3-29.8,29.8-29.8h530.1
		c16.4,0,29.8,13.3,29.8,29.8v417.9C627.1,494.1,613.7,507.4,597.3,507.4z"/>
</g>
<g id="Calque_2">
	<rect x="4.3" y="54.4" class="st5" width="650" height="3"/>
	<rect x="4.3" y="48.4" class="st5" width="650" height="3"/>
	<rect x="4.3" y="60.4" class="st5" width="650" height="3"/>
	<rect x="4.3" y="66.4" class="st5" width="650" height="3"/>
	<rect x="4.3" y="72.4" class="st5" width="650" height="3"/>
	<rect x="4.3" y="78.4" class="st5" width="650" height="3"/>
	<rect x="4.3" y="84.4" class="st5" width="650" height="3"/>
	<rect x="4.3" y="90.4" class="st5" width="650" height="3"/>
	<rect x="4.3" y="96.4" class="st5" width="650" height="3"/>
	<rect x="4.3" y="102.4" class="st5" width="650" height="3"/>
	<rect x="4.3" y="108.4" class="st5" width="650" height="3"/>
	<rect x="4.3" y="114.4" class="st5" width="650" height="3"/>
	<rect x="4.3" y="120.4" class="st5" width="650" height="3"/>
	<rect x="4.3" y="126.4" class="st5" width="650" height="3"/>
	<rect x="4.3" y="132.4" class="st5" width="650" height="3"/>
	<rect x="4.3" y="138.4" class="st5" width="650" height="3"/>
	<rect x="4.3" y="144.4" class="st5" width="650" height="3"/>
	<rect x="4.3" y="150.4" class="st5" width="650" height="3"/>
	<rect x="4.3" y="156.4" class="st5" width="650" height="3"/>
	<rect x="4.3" y="162.4" class="st5" width="650" height="3"/>
	<rect x="4.3" y="168.4" class="st5" width="650" height="3"/>
	<rect x="4.3" y="174.4" class="st5" width="650" height="3"/>
	<rect x="4.3" y="180.4" class="st5" width="650" height="3"/>
	<rect x="4.3" y="186.4" class="st5" width="650" height="3"/>
	<rect x="4.3" y="192.4" class="st5" width="650" height="3"/>
	<rect x="4.3" y="198.4" class="st5" width="650" height="3"/>
	<rect x="4.3" y="204.4" class="st5" width="650" height="3"/>
	<rect x="4.3" y="210.4" class="st5" width="650" height="3"/>
	<rect x="4.3" y="216.4" class="st5" width="650" height="3"/>
	<rect x="4.3" y="222.4" class="st5" width="650" height="3"/>
	<rect x="4.3" y="228.4" class="st5" width="650" height="3"/>
	<rect x="4.3" y="234.4" class="st5" width="650" height="3"/>
	<rect x="4.3" y="240.4" class="st5" width="650" height="3"/>
	<rect x="4.3" y="246.4" class="st5" width="650" height="3"/>
	<rect x="4.3" y="252.4" class="st5" width="650" height="3"/>
	<rect x="4.3" y="258.4" class="st5" width="650" height="3"/>
	<rect x="4.3" y="264.4" class="st5" width="650" height="3"/>
	<rect x="4.3" y="270.4" class="st5" width="650" height="3"/>
	<rect x="4.3" y="276.4" class="st5" width="650" height="3"/>
	<rect x="4.3" y="282.4" class="st5" width="650" height="3"/>
	<rect x="4.3" y="288.4" class="st5" width="650" height="3"/>
	<rect x="4.3" y="294.4" class="st5" width="650" height="3"/>
	<rect x="4.3" y="300.4" class="st5" width="650" height="3"/>
	<rect x="4.3" y="306.4" class="st5" width="650" height="3"/>
	<rect x="4.3" y="312.4" class="st5" width="650" height="3"/>
	<rect x="4.3" y="318.4" class="st5" width="650" height="3"/>
	<rect x="4.3" y="324.4" class="st5" width="650" height="3"/>
	<rect x="4.3" y="336.4" class="st5" width="650" height="3"/>
	<rect x="4.3" y="330.4" class="st5" width="650" height="3"/>
	<rect x="4.3" y="342.4" class="st5" width="650" height="3"/>
	<rect x="4.3" y="348.4" class="st5" width="650" height="3"/>
	<rect x="4.3" y="354.4" class="st5" width="650" height="3"/>
	<rect x="4.3" y="360.4" class="st5" width="650" height="3"/>
	<rect x="4.3" y="366.4" class="st5" width="650" height="3"/>
	<rect x="4.3" y="372.4" class="st5" width="650" height="3"/>
	<rect x="4.3" y="378.4" class="st5" width="650" height="3"/>
	<rect x="4.3" y="384.4" class="st5" width="650" height="3"/>
	<rect x="4.3" y="390.4" class="st5" width="650" height="3"/>
	<rect x="4.3" y="396.4" class="st5" width="650" height="3"/>
	<rect x="4.3" y="402.4" class="st5" width="650" height="3"/>
	<rect x="4.3" y="408.4" class="st5" width="650" height="3"/>
	<rect x="4.3" y="414.4" class="st5" width="650" height="3"/>
	<rect x="4.3" y="420.4" class="st5" width="650" height="3"/>
	<rect x="4.3" y="426.4" class="st5" width="650" height="3"/>
	<rect x="4.3" y="432.4" class="st5" width="650" height="3"/>
	<rect x="4.3" y="438.4" class="st5" width="650" height="3"/>
	<rect x="4.3" y="444.4" class="st5" width="650" height="3"/>
	<rect x="4.3" y="450.4" class="st5" width="650" height="3"/>
	<rect x="4.3" y="456.4" class="st5" width="650" height="3"/>
	<rect x="4.3" y="462.4" class="st5" width="650" height="3"/>
	<rect x="4.3" y="468.4" class="st5" width="650" height="3"/>
	<rect x="4.3" y="474.4" class="st5" width="650" height="3"/>
	<rect x="4.3" y="480.4" class="st5" width="650" height="3"/>
	<rect x="4.3" y="486.4" class="st5" width="650" height="3"/>
	<rect x="4.3" y="492.4" class="st5" width="650" height="3"/>
	<rect x="4.3" y="498.4" class="st5" width="650" height="3"/>
	<rect x="4.3" y="504.4" class="st5" width="650" height="3"/>
	<rect x="4.3" y="510.4" class="st5" width="650" height="3"/>
	<rect x="4.3" y="516.4" class="st5" width="650" height="3"/>
	<rect x="4.3" y="522.4" class="st5" width="650" height="3"/>
</g>
<g id="Calque_3">
	<path class="st6" d="M629.8,1H28.7C12.2,1-1.1,11.9-1.1,25.4V510c0,13.5,13.3,24.4,29.8,24.4h601.2c16.4,0,29.8-10.9,29.8-24.4
		V25.4C659.6,11.9,646.3,1,629.8,1z M613.1,472.5c0,13.5-13.3,24.4-29.8,24.4H75.2c-16.4,0-29.8-10.9-29.8-24.4V62.9
		c0-13.5,13.3-24.4,29.8-24.4h508.2c16.4,0,29.8,10.9,29.8,24.4V472.5z"/>
</g>
</svg>
