<?xml version="1.0" encoding="utf-8"?>
<!-- Generator: Adobe Illustrator 22.0.0, SVG Export Plug-In . SVG Version: 6.00 Build 0)  -->
<svg version="1.1" id="Calque_1" xmlns="http://www.w3.org/2000/svg" xmlns:xlink="http://www.w3.org/1999/xlink" x="0px" y="0px"
	 viewBox="0 0 661 533.6" style="enable-background:new 0 0 661 533.6;" xml:space="preserve">
<style type="text/css">
	.st0{fill:#141414;}
	.st1{fill:#1E2729;}
	.st2{fill:#0E0600;}
</style>
<g id="Calque_1_1_">
	<path class="st0" d="M598.5,506.3H68.4c-16.4,0-29.8-13.3-29.8-29.8V58.6c0-16.4,13.3-29.8,29.8-29.8h530.1
		c16.4,0,29.8,13.3,29.8,29.8v417.9C628.3,493,614.9,506.3,598.5,506.3z"/>
</g>
<g id="Calque_2_1_">
	<rect x="5.5" y="53.3" class="st1" width="650" height="3"/>
	<rect x="5.5" y="47.3" class="st1" width="650" height="3"/>
	<rect x="5.5" y="41.6" class="st1" width="650" height="3"/>
	<rect x="5.5" y="35.9" class="st1" width="650" height="3"/>
	<rect x="5.5" y="59.3" class="st1" width="650" height="3"/>
	<rect x="5.5" y="65.3" class="st1" width="650" height="3"/>
	<rect x="5.5" y="71.3" class="st1" width="650" height="3"/>
	<rect x="5.5" y="77.3" class="st1" width="650" height="3"/>
	<rect x="5.5" y="83.3" class="st1" width="650" height="3"/>
	<rect x="5.5" y="89.3" class="st1" width="650" height="3"/>
	<rect x="5.5" y="95.3" class="st1" width="650" height="3"/>
	<rect x="5.5" y="101.3" class="st1" width="650" height="3"/>
	<rect x="5.5" y="107.3" class="st1" width="650" height="3"/>
	<rect x="5.5" y="113.3" class="st1" width="650" height="3"/>
	<rect x="5.5" y="119.3" class="st1" width="650" height="3"/>
	<rect x="5.5" y="125.3" class="st1" width="650" height="3"/>
	<rect x="5.5" y="131.3" class="st1" width="650" height="3"/>
	<rect x="5.5" y="137.3" class="st1" width="650" height="3"/>
	<rect x="5.5" y="143.3" class="st1" width="650" height="3"/>
	<rect x="5.5" y="149.3" class="st1" width="650" height="3"/>
	<rect x="5.5" y="155.3" class="st1" width="650" height="3"/>
	<rect x="5.5" y="161.3" class="st1" width="650" height="3"/>
	<rect x="5.5" y="167.3" class="st1" width="650" height="3"/>
	<rect x="5.5" y="173.3" class="st1" width="650" height="3"/>
	<rect x="5.5" y="179.3" class="st1" width="650" height="3"/>
	<rect x="5.5" y="185.3" class="st1" width="650" height="3"/>
	<rect x="5.5" y="191.3" class="st1" width="650" height="3"/>
	<rect x="5.5" y="197.3" class="st1" width="650" height="3"/>
	<rect x="5.5" y="203.3" class="st1" width="650" height="3"/>
	<rect x="5.5" y="209.3" class="st1" width="650" height="3"/>
	<rect x="5.5" y="215.3" class="st1" width="650" height="3"/>
	<rect x="5.5" y="221.3" class="st1" width="650" height="3"/>
	<rect x="5.5" y="227.3" class="st1" width="650" height="3"/>
	<rect x="5.5" y="233.3" class="st1" width="650" height="3"/>
	<rect x="5.5" y="239.3" class="st1" width="650" height="3"/>
	<rect x="5.5" y="245.3" class="st1" width="650" height="3"/>
	<rect x="5.5" y="251.3" class="st1" width="650" height="3"/>
	<rect x="5.5" y="257.3" class="st1" width="650" height="3"/>
	<rect x="5.5" y="263.3" class="st1" width="650" height="3"/>
	<rect x="5.5" y="269.3" class="st1" width="650" height="3"/>
	<rect x="5.5" y="275.3" class="st1" width="650" height="3"/>
	<rect x="5.5" y="281.3" class="st1" width="650" height="3"/>
	<rect x="5.5" y="287.3" class="st1" width="650" height="3"/>
	<rect x="5.5" y="293.3" class="st1" width="650" height="3"/>
	<rect x="5.5" y="299.3" class="st1" width="650" height="3"/>
	<rect x="5.5" y="305.3" class="st1" width="650" height="3"/>
	<rect x="5.5" y="311.3" class="st1" width="650" height="3"/>
	<rect x="5.5" y="317.3" class="st1" width="650" height="3"/>
	<rect x="5.5" y="323.3" class="st1" width="650" height="3"/>
	<rect x="5.5" y="335.3" class="st1" width="650" height="3"/>
	<rect x="5.5" y="329.3" class="st1" width="650" height="3"/>
	<rect x="5.5" y="341.3" class="st1" width="650" height="3"/>
	<rect x="5.5" y="347.3" class="st1" width="650" height="3"/>
	<rect x="5.5" y="353.3" class="st1" width="650" height="3"/>
	<rect x="5.5" y="359.3" class="st1" width="650" height="3"/>
	<rect x="5.5" y="365.3" class="st1" width="650" height="3"/>
	<rect x="5.5" y="371.3" class="st1" width="650" height="3"/>
	<rect x="5.5" y="377.3" class="st1" width="650" height="3"/>
	<rect x="5.5" y="383.3" class="st1" width="650" height="3"/>
	<rect x="5.5" y="389.3" class="st1" width="650" height="3"/>
	<rect x="5.5" y="395.3" class="st1" width="650" height="3"/>
	<rect x="5.5" y="401.3" class="st1" width="650" height="3"/>
	<rect x="5.5" y="407.3" class="st1" width="650" height="3"/>
	<rect x="5.5" y="413.3" class="st1" width="650" height="3"/>
	<rect x="5.5" y="419.3" class="st1" width="650" height="3"/>
	<rect x="5.5" y="425.3" class="st1" width="650" height="3"/>
	<rect x="5.5" y="431.3" class="st1" width="650" height="3"/>
	<rect x="5.5" y="437.3" class="st1" width="650" height="3"/>
	<rect x="5.5" y="443.3" class="st1" width="650" height="3"/>
	<rect x="5.5" y="449.3" class="st1" width="650" height="3"/>
	<rect x="5.5" y="455.3" class="st1" width="650" height="3"/>
	<rect x="5.5" y="461.3" class="st1" width="650" height="3"/>
	<rect x="5.5" y="467.3" class="st1" width="650" height="3"/>
	<rect x="5.5" y="473.3" class="st1" width="650" height="3"/>
	<rect x="5.5" y="479.3" class="st1" width="650" height="3"/>
	<rect x="5.5" y="485.3" class="st1" width="650" height="3"/>
	<rect x="5.5" y="491.3" class="st1" width="650" height="3"/>
	<rect x="5.5" y="497.3" class="st1" width="650" height="3"/>
	<rect x="5.5" y="503.3" class="st1" width="650" height="3"/>
	<rect x="5.5" y="509.3" class="st1" width="650" height="3"/>
	<rect x="5.5" y="515.3" class="st1" width="650" height="3"/>
	<rect x="5.5" y="521.3" class="st1" width="650" height="3"/>
</g>
<g id="Calque_3">
	<path class="st2" d="M631-0.1H29.9C13.4-0.1,0.1,10.8,0.1,24.3v484.6c0,13.5,13.3,24.4,29.8,24.4h601.2c16.4,0,29.8-10.9,29.8-24.4
		V24.3C660.8,10.8,647.5-0.1,631-0.1z M614.3,471.4c0,13.5-13.3,24.4-29.8,24.4H76.4c-16.4,0-29.8-10.9-29.8-24.4V61.8
		c0-13.5,13.3-24.4,29.8-24.4h508.2c16.4,0,29.8,10.9,29.8,24.4v409.6L614.3,471.4L614.3,471.4z"/>
</g>
</svg>
